<?xml version="1.0" encoding="UTF-8" standalone="no"?>
<svg
   xmlns:dc="http://purl.org/dc/elements/1.1/"
   xmlns:cc="http://creativecommons.org/ns#"
   xmlns:rdf="http://www.w3.org/1999/02/22-rdf-syntax-ns#"
   xmlns:svg="http://www.w3.org/2000/svg"
   xmlns="http://www.w3.org/2000/svg"
   xmlns:sodipodi="http://sodipodi.sourceforge.net/DTD/sodipodi-0.dtd"
   xmlns:inkscape="http://www.inkscape.org/namespaces/inkscape"
   width="300"
   height="300"
   viewBox="0 0 300 300"
   version="1.1"
   id="svg2216"
   inkscape:version="1.0.1 (3bc2e813f5, 2020-09-07)"
   sodipodi:docname="_MASTER-FRAME-FONT-NEW.svg">
  <defs
     id="defs2210" />
  <sodipodi:namedview
     id="base"
     pagecolor="#ffffff"
     bordercolor="#666666"
     borderopacity="1.0"
     inkscape:pageopacity="0.0"
     inkscape:pageshadow="2"
     inkscape:zoom="0.98994949"
     inkscape:cx="233.17409"
     inkscape:cy="184.99516"
     inkscape:document-units="px"
     inkscape:current-layer="layer1"
     showgrid="false"
     units="px"
     inkscape:window-width="1366"
     inkscape:window-height="705"
     inkscape:window-x="-8"
     inkscape:window-y="-8"
     inkscape:window-maximized="1"
     fit-margin-top="10"
     fit-margin-left="10"
     fit-margin-bottom="10"
     fit-margin-right="10"
     inkscape:showpageshadow="false"
     scale-x="1"
     inkscape:document-rotation="0" />
  <metadata
     id="metadata2213">
    <rdf:RDF>
      <cc:Work
         rdf:about="">
        <dc:format>image/svg+xml</dc:format>
        <dc:type
           rdf:resource="http://purl.org/dc/dcmitype/StillImage" />
        <dc:title />
      </cc:Work>
    </rdf:RDF>
  </metadata>
  <g
     inkscape:label="Layer 1"
     inkscape:groupmode="layer"
     id="layer1"
     transform="translate(0,0)">
    
<g
       aria-label="j"
       style="font-style:normal;font-variant:normal;font-weight:normal;font-stretch:normal;font-size:5.33333px;line-height:1.25;font-family:'Open Sans';-inkscape-font-specification:'Open Sans, Normal';font-variant-ligatures:normal;font-variant-caps:normal;font-variant-numeric:normal;font-feature-settings:normal;text-align:start;letter-spacing:0px;word-spacing:0px;writing-mode:lr-tb;text-anchor:start;fill:#0000ff;fill-opacity:1;stroke:none"
       id="text824"
       transform="translate(251.13415,-149.09144)">
      <path
         d="m -113.79152,160.32002 c -14.77477,2.38895 -28.21349,3.49193 -32.16315,8.28794 1.78741,78.59737 1.5691,136.80885 1.2968,220.06351 -39.84091,-12.07282 -43.77828,-28.60948 -59.456,-56.86933 -9.02778,-1.69271 -22.50455,-2.19779 -32.09657,-0.50508 16.02059,60.15097 65.42379,102.8452 121.17497,105.58268 1.34104,-71.07955 2.80082,-231.70293 1.24395,-276.55972 z"
         style="font-style:normal;font-variant:normal;font-weight:normal;font-stretch:normal;font-size:433.333px;font-family:'SunCatcherStudioFont left';-inkscape-font-specification:'SunCatcherStudioFont left';fill:#010101;fill-opacity:1"
         id="path825"
         inkscape:connector-curvature="0"
         sodipodi:nodetypes="ccccccc" />
    </g>



<g
       aria-label="g"
       style="font-style:normal;font-variant:normal;font-weight:normal;font-stretch:normal;font-size:5.33333px;line-height:1.25;font-family:'Open Sans';-inkscape-font-specification:'Open Sans, Normal';font-variant-ligatures:normal;font-variant-caps:normal;font-variant-numeric:normal;font-feature-settings:normal;text-align:start;letter-spacing:0px;word-spacing:0px;writing-mode:lr-tb;text-anchor:start;fill:#010101;fill-opacity:1;stroke:none"
       id="text828"
       transform="translate(250.99132,-148.72087)">
      <path
         d="m 36.734553,284.05337 c -14.388021,-1.41059 -36.99032832,-1.41059 -51.37835,0 -1.551649,9.45095 -1.551649,18.83138 0,28.14128 0.846355,0.56423 11.599703,0.77582 15.8314739,0.63476 3.6675348,0 5.6423612,0.84636 5.9244793,2.53907 -0.4231771,9.59201 -3.8791233,21.01779 -10.3678388,34.27734 -7.3350694,15.23437 -43.3255834,44.07594 -51.5429694,43.25966 -1.692708,-66.29775 -3.74233,-150.71688 -1.062209,-187.8154 29.720179,0.93344 48.3334854,27.0538 56.6253608,46.16707 5.9244793,0.84635 15.2343752,0.63476 27.9296882,-0.63477 -12.977431,-42.74089 -58.834148,-84.0318 -116.097087,-90.41144 0.412931,89.93623 0.349783,187.20999 0.349783,277.13903 47.052577,-2.73842 91.1941325,-38.6006 110.034413,-75.22042 11.143663,-23.55686 15.728082,-49.58225 13.753256,-78.07618 z"
         style="font-style:normal;font-variant:normal;font-weight:normal;font-stretch:normal;font-size:433.333px;font-family:'SunCatcherStudioFont right';-inkscape-font-specification:'SunCatcherStudioFont right';fill:#010101;fill-opacity:1"
         id="path822"
         inkscape:connector-curvature="0"
         sodipodi:nodetypes="cccccccccccccc" />
    </g>



  </g>
</svg>
