<?xml version="1.0" encoding="UTF-8" standalone="no"?>
<!-- Created with Inkscape (http://www.inkscape.org/) -->
<svg
  xmlns:inkscape="http://www.inkscape.org/namespaces/inkscape"
  xmlns:rdf="http://www.w3.org/1999/02/22-rdf-syntax-ns#"
  xmlns="http://www.w3.org/2000/svg"
  xmlns:cc="http://creativecommons.org/ns#"
  xmlns:dc="http://purl.org/dc/elements/1.1/"
  xmlns:sodipodi="http://sodipodi.sourceforge.net/DTD/sodipodi-0.dtd"
  id="svg2"
  sodipodi:docname="_svgclean2.svg"
  viewBox="0 0 872.16 725.78"
  version="1.1"
  inkscape:version="0.48.3.1 r9886"
  fill="white"
>
  <sodipodi:namedview
    id="base"
    fit-margin-left="0"
    inkscape:zoom="0.12884718"
    borderopacity="1.0"
    inkscape:current-layer="g4865"
    inkscape:cx="436.07812"
    inkscape:cy="142.10445"
    inkscape:window-maximized="0"
    showgrid="false"
    fit-margin-right="0"
    inkscape:snap-midpoints="true"
    inkscape:document-units="px"
    bordercolor="#666666"
    inkscape:window-x="0"
    inkscape:window-y="0"
    fit-margin-bottom="0"
    inkscape:window-width="512"
    inkscape:pageopacity="0.0"
    inkscape:pageshadow="2"
    pagecolor="#ffffff"
    inkscape:window-height="452"
    fit-margin-top="0"
  >
    <inkscape:grid
      id="grid4772"
      originy="-729.93964px"
      enabled="true"
      originx="1163.915px"
      visible="true"
      snapvisiblegridlinesonly="true"
      type="xygrid"
      empspacing="5"
    />
  </sodipodi:namedview>
  <g
    id="layer1"
    inkscape:label="Layer 1"
    inkscape:groupmode="layer"
    transform="translate(1163.9 182.57)"
  >
    <g
      id="g4865"
      transform="matrix(.88037 0 0 .88037 874.06 -466.68)"
    >
      <path
        id="path4867"
        sodipodi:nodetypes="sscscccscsccsccccccccccccscccccccscsccccccccccccsccccccsccscsccccccsccsccscccccccccccccccccccccccccscccccsccssssssssssssssccccccccccccccc"
        inkscape:connector-curvature="0"
        d="m195.28 49.75c-7.5016 0.0057-15.059 0.48825-22.781 1.4062-15.491 1.8416-29.07 12.849-43.531 17.188-16.197-3.4708-32.694-5.5-49.469-5.5-6.9407 0-13.567 0.2965-20.219 0.875 12.437 9.8331 23.994 19.385 35.562 29.219 1.4459 13.014 2.6162 26.633 2.9062 39.938-0.57858 11.28-0.875 22.564-0.875 33.844 0 6.0749 0.02215 12.395 0.3125 18.469v3.7812c0 24.3 1.4434 48.585 4.625 72.594 0.28929 2.306 0.85088 4.6315 1.7188 6.9375 5.4952 10.71 16.195 17.656 28.344 17.656 5.7849 0 11.553-1.4731 16.469-4.6562 3.4704-1.726 7.2323-3.1716 11.281-3.4688 0.57867-0.28295 0.89149-0.2654 1.4688-0.5625 3.7604-2.0231 5.7725-6.0788 6.0625-10.125-0.57867-4.6262-0.57867-9.28 0-13.906 0.28858-10.115 2.911-20.215 7.25-29.75 3.759-9.5495 6.6318-19.383 8.6562-29.219 7.2308-2.8917 13.888-6.0921 20.25-9.5625 14.173 22.265 21.71 48 22 74.031l0.5625 30.969c0.2826 12.47 0.28169 24.922 0.28125 37.656 0.0176-0.36319 0.0649 0.4359 0.28125 1.0938 0.83802 12.775 1.6233 26.309 8.3438 37 4.491 7.1441 10.05 13.458 16.406 19.062 3.6008 7.9536 24.368 54.169 35.031 86.188 0 0.0114-0.00018 0.0195 0 0.0313 0.13795 8.7086 1.658 32.444 2.1875 47.688-0.13813 2.3402-0.76812 8.8347 0.0313 12.562-0.95423 7.6301-0.312 18.367 2.75 28.469 2.5822 8.5218-4.8432 41.219-11.281 58.094 7.2211-2.0144 14.83-3.0938 22.688-3.0938 18.103 0 34.868 5.744 48.625 15.469 0.29095-3.8338 0.57494-7.2761 0.40625-10.312-0.38736-6.973-2.4155-8.4025-5.6562-17.125-0.01-0.40961-0.008-0.822-0.0313-1.2188-0.22634-4.0747-1.0216-6.2782-2.2812-9.125-2.6742-22.994 1.2399-47.611 1.9688-51.5 1.3776-7.3473 1.3993-11.013-0.4375-20.656 0.0643-1.8566-0.39512-4.6794-0.8125-7.5625-0.19799-2.6068-0.37806-5.7473-0.5625-9.1875 0.20609-1.5275 0.14527-2.0718-0.125-2.0625-0.3238-6.3896-0.61477-13.561-0.84375-21.156-3.8631-21.139 1.3627-38.922 2.4062-56.688 17.752 3.3255 34.309 5.2449 47 6.6875-0.0211-0.1092-0.17263-0.35954-0.0625-0.34375 23.443 3.3622 47.136 5.2188 70.281 5.2188 27.177 0 54.076-2.2954 80.688-7.2188 8.6723-1.443 17.329-3.1974 25.719-4.9375 0.0361 0.16502 0.0889 0.30431 0.125 0.46875 41.281-9.6817 73.501-16.198 98.938-20.875 2.7177 2.6684 5.2942 5.0594 7.5938 7.0938 6.0438 10.008 20.516 34.438 22.688 38.781 2.2961 4.592 15.994 29.093 27.156 41.781 4.8087 5.4663 8.9247 23.332 12.562 29.844 4.7629 8.5228 11.844 22.558 11.938 31.031 0.2296 20.873-0.6849 36.484-2.0625 44.75-1.3722 8.2334-4.0889 20.098-3.6562 27.906 11.429-5.7811 24.333-9.0625 38-9.0625 12.299 0 23.985 2.6334 34.531 7.375-0.0684-1.0519-0.16989-2.0606-0.28125-3.0312-0.88829-7.7489-2.5946-9.3445-5.8125-18.406-0.0739-1.2811-0.17816-2.5481-0.3125-3.7188-0.86531-7.5417-2.5097-9.2202-5.5625-17.656-0.0537-1.7118-0.11294-3.4682-0.15625-5.1562-0.29246-11.386-0.35584-22.128-0.0937-30.906 0.18725-6.2699 0.54352-11.534 1.0938-15.312 0.26649-1.8318 0.48783-3.5092 0.6875-5.0625 0.59874-4.66 0.93333-8.1431 1.25-11.031 0.10556-0.96272 0.20263-1.8713 0.3125-2.7188 0.21965-1.6948 0.46872-3.1779 0.8125-4.6562 0.17185-0.73916 0.36415-1.5038 0.59375-2.25 0.4592-1.4924 0.87146-3.1832 1.0312-5 0.11982-1.3626 0.10583-2.7948-0.0937-4.25-0.26596-1.9402-0.89813-3.93-2-5.875-0.55085-0.97251-1.214-1.9355-2.0312-2.875-0.20865-0.23976-0.42876-0.45083-0.65625-0.6875-0.2178-0.22709-0.42049-0.46359-0.65625-0.6875 0-0.004-0.0268 0.004-0.0313 0-0.2362-0.22385-0.46397-0.46716-0.71875-0.6875-0.009-0.004-0.026 0.004-0.0313 0-0.51581-0.44518-1.0612-0.88378-1.6562-1.3125-0.009-0.004-0.0251 0.004-0.0313 0-0.12528-0.0901-0.24611-0.19196-0.375-0.28125-0.066-0.0459-0.12024-0.11059-0.1875-0.15625 0.41615-0.16382 0.6875-0.21875 0.6875-0.21875-10.714-7.0414-30.916-39.19-34.438-52.812-5.8171-22.504-2.1217-18.495 0.90625-29.844 0.75627-2.8361 3.4802-15.08 6.5625-29.781 6.464-12 9.9222-23.1 11.5-33.438-0.4452-10.008-1.4322-19.873-2.9062-29.562-0.58007-3.7632-1.465-6.9401-2.625-10.406-6.9322-21.985-18.225-41.922-33.844-59.281 11.29-0.58005 21.982 2.3216 31.531 8.0938 1.146 0.58005 2.3382 1.7308 3.7812 2.5938 2.9003 2.6031 5.4768 5.7697 7.5 9.25 9.2525 17.062 15.364 35.604 18.25 54.406 5.2062 37.307 7.5 74.023 7.5 110.75v11.594l68.844-0.90625c-1.74-34.407-4.6391-69.392-9.5625-103.81-2.0231-26.611-11.57-51.798-26.906-73.5-8.0923-12.139-18.783-21.647-31.219-28.594-15.322-7.5123-32.11-11.281-49.469-11.281-11.276 0-22.836 1.4243-33.531 5.1875-15.619-5.2063-33.872-10.7-52.094-15.906-15.619-4.6319-30.675-4.2374-45.969-6.6562-73.329-11.597-150.1-11.294-219.5-37.656-55.718-21.165-91.146-69.908-151.88-94.375-25.05-10.078-47.11-14.407-69.62-14.39zm107.31 572.91c-42.259 0-76.406 34.178-76.406 76.438 0 42.259 34.147 76.438 76.406 76.438s76.438-34.178 76.438-76.438c0-42.259-34.178-76.438-76.438-76.438zm479.56 0c-42.259 0-76.438 34.178-76.438 76.438 0 42.259 34.178 76.438 76.438 76.438 42.259 0 76.406-34.178 76.406-76.438 0-42.259-34.147-76.438-76.406-76.438zm-639 32.125v44.312h75.003c0-16.248 4.6186-31.424 12.594-44.312zm231.28 0c7.9751 12.888 12.594 28.064 12.594 44.312h310.69c0-16.248 4.6186-31.424 12.594-44.312zm479.56 0c7.9751 12.888 12.594 28.064 12.594 44.312h64.844v-44.312z"
        transform="matrix(1.1359 0 0 1.1359 -2382.3 266.2)"
      />
      <path
        id="path4869"
        inkscape:connector-curvature="0"
        d="m-1950.7 943.78c-0.1656-0.55374-0.3358-1.1018-0.5-1.6562l0.6562 2.2812c-0.053-0.20706-0.1038-0.41794-0.1562-0.625z"
      />
    </g>
  </g>
  <metadata
    id="metadata10"
  >
    <rdf:RDF>
      <cc:Work>
        <dc:format>image/svg+xml</dc:format>
        <dc:type
          rdf:resource="http://purl.org/dc/dcmitype/StillImage"
        />
        <cc:license
          rdf:resource="http://creativecommons.org/licenses/publicdomain/"
        />
        <dc:publisher>
          <cc:Agent
            rdf:about="http://openclipart.org/"
          >
            <dc:title>Openclipart</dc:title>
          </cc:Agent>
        </dc:publisher>
      </cc:Work>
      <cc:License
        rdf:about="http://creativecommons.org/licenses/publicdomain/"
      >
        <cc:permits
          rdf:resource="http://creativecommons.org/ns#Reproduction"
        />
        <cc:permits
          rdf:resource="http://creativecommons.org/ns#Distribution"
        />
        <cc:permits
          rdf:resource="http://creativecommons.org/ns#DerivativeWorks"
        />
      </cc:License>
    </rdf:RDF>
  </metadata>
</svg>