<svg xmlns="http://www.w3.org/2000/svg" height="48" viewBox="0 -960 960 960" width="48"><path d="M64.565-103.348q-30.844 0-54.194-23.279-23.35-23.28-23.35-54.025v-599.696q0-30.745 23.35-54.025 23.35-23.279 54.194-23.279h830.109q30.494 0 53.899 23.279 23.405 23.28 23.405 54.025v599.696q0 30.745-23.405 54.025-23.405 23.279-53.899 23.279H64.565Zm550.326-74.435h282.413v-605.434H61.696v605.434h10q43.761-77.847 115.202-118.891 71.441-41.043 157.064-41.043 84.137 0 155.033 41.043 70.896 41.044 115.896 118.891ZM343.435-420.609q52.561 0 88.183-35.838 35.621-35.839 35.621-89.325 0-52.402-35.613-88.163-35.613-35.761-88.783-35.761-53.169 0-88.93 35.741-35.761 35.741-35.761 88.803 0 52.782 35.67 88.663 35.669 35.88 89.613 35.88Zm258.239-106.913h188.674q16.495 0 27.443-10.72 10.948-10.721 10.948-27.671v-110.109q0-16.495-10.948-27.443t-27.443-10.948H601.674q-17.046 0-27.719 10.948-10.672 10.948-10.672 27.443v110.109q0 16.95 10.672 27.671 10.673 10.72 27.719 10.72ZM165.326-177.783h355.217q-37.301-44.321-81.935-64.91-44.635-20.59-95.429-20.59-50.794 0-96.682 19.446-45.888 19.446-81.171 66.054Zm178.236-314.63q-21.922 0-37.764-15.463-15.841-15.463-15.841-37.191 0-21.83 15.526-37.447 15.527-15.616 37.283-15.616 21.757 0 37.213 15.354t15.456 36.921q0 21.992-15.239 37.717-15.238 15.725-36.634 15.725ZM480-480.761Zm216.891-84.282-105.043-79.01v-41.795l104.043 79.283 104.283-79.283v41.795l-103.283 79.01Z"/></svg>