<svg xmlns="http://www.w3.org/2000/svg" height="48" viewBox="0 -960 960 960" width="48"><path d="M806.625-102.804q-123.235 0-249.006-58T325.446-324.706Q219.043-430.609 160.924-557.121q-58.12-126.512-58.12-249.295 0-22.513 14.185-36.766 14.185-14.253 36.555-14.253h153.26q18.455 0 31.032 11.555 12.577 11.554 17.055 30.38l28.451 132.271q1.31 16.468-1.907 30.487-3.217 14.019-11.598 22.186L266.544-527.652q23.043 40.565 51.445 76.869 28.402 36.305 62.446 69.109 35.282 37.522 73.467 66.446t78.511 50.967l102.043-102.804q10.674-11.913 24.36-16.131 13.687-4.217 27.684-1.261l128.478 28.848q18.18 5.196 30.318 19.153 12.139 13.957 12.139 32.456v150.456q0 22.507-14.27 36.623-14.271 14.117-36.54 14.117ZM228.152-598l77.957-77.522-22.723-104.369H182.109q1.761 41.326 11.772 84.453 10.012 43.127 34.271 97.438ZM605-225.391q38.043 17.761 83.946 29.521 45.902 11.761 90.945 14.761v.261-103.457l-99.413-21.565L605-225.391ZM228.152-598ZM605-225.391Z"/></svg>