<svg xmlns="http://www.w3.org/2000/svg" height="48" viewBox="0 -960 960 960" width="48"><path d="M140.109-143.326q-30.746 0-54.025-23.447-23.28-23.447-23.28-53.857v-518.74q0-30.509 23.28-54.026 23.279-23.517 54.025-23.517h679.782q30.845 0 54.194 23.517 23.35 23.517 23.35 54.026v518.74q0 30.41-23.35 53.857-23.349 23.447-54.194 23.447H140.109Zm679.782-525.609L500.458-460.942q-5.946 3.529-10.628 5.029t-9.876 1.5q-5.193 0-9.83-1.5-4.636-1.5-10.582-5.029L140.109-668.935v448.305h679.782v-448.305ZM480-519.848 818.696-739.37H142.304L480-519.848ZM140.109-668.935v6.957V-711.11v1.365-29.625 29.196-.912V-661.978v-6.957 448.305-448.305Z"/></svg>